<?xml version="1.0" encoding="UTF-8" ?>
<!DOCTYPE svg PUBLIC "-//W3C//DTD SVG 1.1//EN" "http://www.w3.org/Graphics/SVG/1.1/DTD/svg11.dtd">
<svg width="879pt" height="882pt" viewBox="0 0 879 882" version="1.1" xmlns="http://www.w3.org/2000/svg">
<g id="#010202ff">
</g>
<g id="#d2d2d2ff">
<path fill="#d2d2d2" opacity="1.00" d=" M 124.43 9.67 C 127.61 9.27 130.80 8.95 134.00 8.97 C 336.01 8.99 538.01 8.96 740.01 8.98 C 758.59 10.08 777.11 14.65 793.57 23.46 C 824.18 39.32 848.29 67.60 858.38 100.64 C 865.88 121.91 865.49 144.76 865.36 167.00 C 865.36 344.33 865.31 521.67 865.32 699.00 C 865.22 713.32 865.45 727.64 865.16 741.96 C 864.01 766.28 856.53 790.53 842.51 810.55 C 822.51 840.87 789.00 861.91 753.00 866.74 C 741.42 868.59 729.67 867.86 718.00 868.02 C 528.00 868.02 338.00 868.00 148.00 868.03 C 135.49 868.27 122.90 867.91 110.61 865.37 C 93.01 861.39 75.96 854.40 61.37 843.67 C 46.61 833.24 34.19 819.54 24.89 804.07 C 13.42 784.04 6.16 761.22 6.53 738.00 C 6.46 540.66 6.67 343.33 6.55 146.00 C 6.35 122.66 11.22 99.01 22.51 78.45 C 42.54 40.78 81.69 13.44 124.43 9.67 M 147.29 72.32 C 140.02 81.56 134.99 93.01 134.73 104.88 C 134.19 109.23 134.22 113.62 134.31 118.00 C 134.33 145.34 134.27 172.67 134.31 200.00 C 134.45 204.56 134.36 209.11 133.88 213.65 C 121.58 214.21 109.27 213.82 96.97 213.94 C 92.11 213.79 87.69 218.09 87.81 222.97 C 87.62 262.64 87.82 302.32 87.75 342.00 C 87.81 346.99 87.43 352.02 88.06 356.99 C 88.53 361.38 92.51 365.02 96.95 364.97 C 109.35 365.41 121.76 364.67 134.16 364.94 C 134.53 382.29 134.10 399.64 134.30 416.99 C 134.15 449.26 134.68 481.54 133.97 513.80 C 121.64 514.32 109.29 513.61 96.96 513.98 C 92.57 513.97 88.38 517.57 88.06 522.01 C 87.66 525.32 87.76 528.67 87.76 532.00 C 87.73 572.68 87.78 613.36 87.83 654.04 C 87.37 659.72 92.44 664.75 98.02 664.78 C 110.06 665.09 122.12 664.72 134.17 665.04 C 134.57 696.35 134.22 727.68 134.34 759.00 C 134.44 765.37 133.99 771.78 134.70 778.14 C 135.98 795.67 146.25 812.74 162.08 820.82 C 169.57 824.36 177.55 827.63 186.01 827.19 C 358.34 827.19 530.67 827.18 703.00 827.19 C 716.27 827.01 729.66 827.92 742.81 825.70 C 757.40 822.90 771.32 816.91 783.59 808.57 C 795.39 799.84 805.81 789.09 813.73 776.70 C 822.93 761.13 828.90 743.34 829.18 725.15 C 829.93 720.47 829.75 715.72 829.70 711.00 C 829.74 644.34 829.63 577.66 829.94 511.00 C 829.57 499.37 829.42 487.72 830.02 476.10 C 830.51 476.10 831.49 476.10 831.98 476.10 C 832.00 485.73 831.73 495.37 832.13 505.00 C 832.22 510.48 836.78 515.09 842.17 515.64 C 847.11 516.10 853.04 516.69 856.94 512.93 C 860.54 509.68 860.19 504.40 860.36 499.99 C 860.24 491.93 860.61 483.87 860.19 475.82 C 859.97 452.93 860.18 430.04 860.07 407.16 C 860.12 398.43 860.16 389.69 859.91 380.97 C 860.03 375.98 855.76 371.67 850.87 371.35 C 845.46 371.01 838.82 370.30 834.85 374.83 C 831.30 379.28 832.34 385.39 832.31 390.68 C 831.68 396.11 831.86 401.58 832.03 407.03 C 831.48 407.02 830.38 406.99 829.83 406.98 C 829.91 399.32 829.85 391.66 829.71 384.00 C 830.34 367.34 829.66 350.67 829.87 334.00 C 829.79 278.00 829.79 222.00 829.72 166.00 C 829.83 161.94 829.84 157.86 829.17 153.84 C 827.82 129.08 818.21 104.85 801.81 86.21 C 798.17 82.13 793.74 78.90 789.63 75.34 C 771.91 60.79 749.02 52.27 726.00 52.93 C 547.00 52.97 368.00 52.91 189.00 52.96 C 173.17 52.78 157.18 59.82 147.29 72.32 Z" />
<path fill="#d2d2d2" opacity="1.00" d=" M 173.60 72.57 C 183.79 66.93 195.80 68.04 207.00 68.02 C 376.33 68.01 545.67 68.05 715.00 68.01 C 721.72 67.96 728.49 67.76 735.17 68.74 C 747.16 70.27 758.43 75.21 768.83 81.20 C 778.97 87.00 787.21 95.54 794.48 104.58 C 807.12 120.44 813.12 140.74 814.30 160.77 C 814.02 242.84 814.50 324.92 814.11 406.98 C 788.07 407.07 762.04 406.77 736.00 406.98 C 729.46 407.11 722.87 406.43 716.39 407.50 C 708.24 409.24 700.84 414.23 696.00 421.00 C 687.42 433.46 687.21 451.38 696.42 463.58 C 701.20 469.85 708.34 474.52 716.20 475.70 C 722.43 476.50 728.73 476.07 735.00 476.17 C 761.34 476.27 787.68 476.09 814.01 476.17 C 814.75 492.77 813.97 509.39 814.30 526.00 C 814.20 591.07 814.24 656.15 814.39 721.22 C 812.64 751.06 796.38 779.88 771.16 796.11 C 756.52 806.29 738.83 811.94 721.00 812.05 C 549.00 812.07 377.00 812.06 205.00 812.09 C 194.66 812.25 183.73 812.79 174.31 807.73 C 160.82 800.68 150.17 786.84 149.71 771.25 C 149.72 737.81 149.90 704.37 149.77 670.94 C 149.31 666.98 152.40 664.19 153.82 660.84 C 154.46 657.93 154.22 654.94 154.24 652.00 C 154.05 640.98 154.43 629.95 154.17 618.93 C 154.35 616.53 152.82 614.67 151.32 613.01 C 152.85 612.68 154.38 612.36 155.91 612.05 C 156.43 629.64 155.89 647.26 156.17 664.86 C 163.23 664.70 170.41 665.65 177.39 664.30 C 181.98 663.24 184.45 658.54 184.09 654.06 C 184.58 616.38 184.19 578.68 184.31 540.99 C 184.13 534.39 184.82 527.73 183.87 521.17 C 183.38 517.25 179.81 514.31 175.95 514.11 C 169.42 513.57 162.86 514.17 156.33 514.31 C 155.32 531.16 157.22 548.10 155.70 564.92 C 155.23 564.92 154.28 564.93 153.81 564.93 C 154.25 551.96 153.86 538.98 154.21 526.01 C 154.21 522.43 154.72 518.51 152.54 515.40 C 150.68 512.61 149.53 509.41 149.75 506.02 C 149.89 460.99 149.56 415.95 149.93 370.91 C 149.39 365.98 154.93 363.01 154.18 358.07 C 153.76 345.03 154.89 331.97 153.97 318.95 C 154.13 316.64 152.14 315.33 150.69 313.91 C 150.58 313.59 150.36 312.95 150.25 312.63 C 152.23 312.23 154.24 311.93 156.24 311.62 C 156.47 329.36 156.32 347.11 156.24 364.85 C 162.82 364.87 169.41 365.29 175.98 364.87 C 179.55 364.80 182.72 362.05 183.49 358.60 C 184.13 355.78 184.07 352.86 184.12 349.99 C 184.35 308.65 184.01 267.31 184.28 225.98 C 184.17 223.12 184.29 219.91 182.43 217.53 C 180.70 215.24 177.83 214.15 175.03 214.03 C 168.80 213.65 162.55 214.09 156.32 214.18 C 156.35 231.51 156.59 248.84 156.23 266.17 C 154.29 265.90 152.35 265.65 150.43 265.26 C 151.74 264.34 153.09 263.46 154.21 262.32 C 155.06 258.95 154.67 255.42 154.70 251.99 C 154.45 241.65 154.81 231.31 154.65 220.98 C 154.92 216.28 149.29 213.84 149.73 209.09 C 149.72 175.97 149.69 142.85 149.72 109.74 C 150.37 94.14 160.09 80.01 173.60 72.57 M 250.40 176.37 C 241.87 178.71 234.54 184.31 229.35 191.38 C 222.69 200.13 221.49 211.94 223.47 222.48 C 225.24 231.56 231.43 238.85 237.77 245.22 C 275.86 283.38 314.05 321.44 352.09 359.65 C 339.89 378.62 333.00 400.75 330.27 423.05 C 327.66 442.87 330.18 463.11 335.83 482.21 C 338.42 491.36 342.56 499.95 346.41 508.60 C 347.63 511.36 349.24 513.92 351.03 516.34 C 317.87 549.75 284.42 582.87 251.16 616.17 C 244.60 622.58 237.98 628.95 231.65 635.59 C 224.56 643.20 221.44 653.96 222.57 664.22 C 223.56 674.87 229.24 684.80 237.37 691.63 C 244.35 696.95 253.19 699.86 261.96 699.75 C 271.45 699.14 280.91 695.47 287.65 688.64 C 327.18 649.54 366.31 610.01 405.73 570.79 C 410.91 574.36 416.55 577.17 422.27 579.76 C 458.49 595.80 501.09 597.43 538.13 583.12 C 546.93 579.87 555.59 576.07 563.37 570.78 C 601.76 609.01 639.99 647.40 678.38 685.62 C 684.34 691.83 691.59 697.16 700.24 698.74 C 718.33 703.17 738.23 692.04 744.75 674.79 C 749.87 660.56 746.55 643.14 735.21 632.79 C 696.40 593.91 657.50 555.11 618.47 516.46 C 632.35 492.49 640.03 464.76 639.39 437.00 C 639.54 417.78 635.06 398.77 627.98 380.99 C 624.77 373.66 621.83 366.09 616.94 359.68 C 652.76 323.59 688.80 287.71 724.77 251.77 C 729.67 246.68 735.00 241.99 739.43 236.46 C 751.16 221.81 749.04 198.36 735.30 185.70 C 728.96 179.14 719.96 175.88 711.03 175.03 C 700.32 174.20 689.61 178.56 681.85 185.84 C 642.00 225.33 602.58 265.28 562.63 304.67 C 549.37 296.46 534.38 291.62 519.39 287.67 C 492.11 281.62 463.15 282.81 436.59 291.58 C 426.14 294.81 415.71 298.80 406.69 305.08 C 366.81 265.37 327.09 225.50 287.27 185.73 C 277.77 176.48 263.17 172.54 250.40 176.37 Z" />
<path fill="#d2d2d2" opacity="1.00" d=" M 115.40 263.97 C 121.58 263.79 127.81 263.76 133.91 264.96 C 128.97 266.18 123.85 266.03 118.80 266.05 C 118.51 281.40 118.51 296.76 118.74 312.10 C 124.01 312.59 130.07 310.68 134.58 314.24 C 128.41 314.68 122.22 314.84 116.03 314.71 C 115.51 297.80 115.49 280.89 115.40 263.97 Z" />
<path fill="#d2d2d2" opacity="1.00" d=" M 116.04 563.36 C 122.36 563.29 128.75 562.54 135.02 563.74 C 130.56 566.76 124.78 564.85 119.73 565.74 L 118.77 565.76 C 118.46 581.09 118.43 596.45 118.90 611.78 C 123.94 611.78 129.04 611.70 133.96 612.99 C 128.01 614.37 121.89 614.28 115.83 614.15 C 115.52 607.10 115.67 600.05 115.79 593.00 C 116.01 583.12 115.57 573.24 116.04 563.36 Z" />
</g>
<g id="#8d8d8dff">
<path fill="#8d8d8d" opacity="1.00" d=" M 147.29 72.32 C 157.18 59.82 173.17 52.78 189.00 52.96 C 368.00 52.91 547.00 52.97 726.00 52.93 C 749.02 52.27 771.91 60.79 789.63 75.34 C 793.74 78.90 798.17 82.13 801.81 86.21 C 818.21 104.85 827.82 129.08 829.17 153.84 C 829.39 208.89 829.27 263.95 829.32 319.00 C 829.24 340.33 829.52 361.67 829.12 383.00 C 829.11 391.05 829.61 399.11 829.15 407.16 C 824.37 407.40 819.59 407.37 814.83 407.09 C 814.58 327.38 814.71 247.66 814.67 167.95 C 814.59 165.56 814.44 163.16 814.30 160.77 C 813.12 140.74 807.12 120.44 794.48 104.58 C 787.21 95.54 778.97 87.00 768.83 81.20 C 758.43 75.21 747.16 70.27 735.17 68.74 C 728.49 67.76 721.72 67.96 715.00 68.01 C 545.67 68.05 376.33 68.01 207.00 68.02 C 195.80 68.04 183.79 66.93 173.60 72.57 C 160.09 80.01 150.37 94.14 149.72 109.74 C 149.37 113.48 149.17 117.25 149.16 121.01 C 149.28 146.34 149.08 171.67 149.24 197.00 C 149.35 202.68 149.34 208.35 149.14 214.03 C 144.38 214.31 139.62 214.33 134.87 214.08 C 134.57 177.68 134.89 141.28 134.73 104.88 C 134.99 93.01 140.02 81.56 147.29 72.32 Z" />
<path fill="#8d8d8d" opacity="1.00" d=" M 156.32 214.18 C 162.55 214.09 168.80 213.65 175.03 214.03 C 177.83 214.15 180.70 215.24 182.43 217.53 C 184.29 219.91 184.17 223.12 184.28 225.98 C 184.01 267.31 184.35 308.65 184.12 349.99 C 184.07 352.86 184.13 355.78 183.49 358.60 C 182.72 362.05 179.55 364.80 175.98 364.87 C 169.41 365.29 162.82 364.87 156.24 364.85 C 156.32 347.11 156.47 329.36 156.24 311.62 C 154.24 311.93 152.23 312.23 150.25 312.63 C 145.56 315.67 139.83 315.62 134.58 314.24 C 130.07 310.68 124.01 312.59 118.74 312.10 C 118.51 296.76 118.51 281.40 118.80 266.05 C 123.85 266.03 128.97 266.18 133.91 264.96 C 136.92 264.29 139.93 263.32 143.04 263.48 C 145.57 263.76 147.98 264.62 150.43 265.26 C 152.35 265.65 154.29 265.90 156.23 266.17 C 156.59 248.84 156.35 231.51 156.32 214.18 Z" />
<path fill="#8d8d8d" opacity="1.00" d=" M 436.59 291.58 C 463.15 282.81 492.11 281.62 519.39 287.67 C 534.38 291.62 549.37 296.46 562.63 304.67 C 557.94 309.63 553.12 314.47 548.25 319.25 C 536.37 330.80 525.12 343.01 512.97 354.27 C 506.37 352.69 499.87 350.44 493.04 350.11 C 488.01 349.86 482.96 349.89 477.93 350.13 C 470.48 350.41 463.34 352.76 456.07 354.16 C 439.30 338.13 423.22 321.37 406.69 305.08 C 415.71 298.80 426.14 294.81 436.59 291.58 Z" />
<path fill="#8d8d8d" opacity="1.00" d=" M 330.27 423.05 C 333.00 400.75 339.89 378.62 352.09 359.65 C 356.78 364.04 361.25 368.65 365.76 373.23 C 377.19 384.90 389.14 396.07 400.27 408.03 C 396.05 423.03 393.18 438.95 396.57 454.43 C 397.36 458.86 399.37 463.14 399.26 467.69 C 396.49 471.98 392.21 475.04 388.82 478.82 C 376.17 491.27 363.77 503.98 351.03 516.34 C 349.24 513.92 347.63 511.36 346.41 508.60 C 342.56 499.95 338.42 491.36 335.83 482.21 C 330.18 463.11 327.66 442.87 330.27 423.05 Z" />
<path fill="#8d8d8d" opacity="1.00" d=" M 568.39 408.18 C 584.52 391.96 600.66 375.75 616.94 359.68 C 621.83 366.09 624.77 373.66 627.98 380.99 C 635.06 398.77 639.54 417.78 639.39 437.00 C 640.03 464.76 632.35 492.49 618.47 516.46 C 601.89 500.36 585.54 484.03 569.21 467.68 C 570.82 459.81 573.32 452.07 573.75 444.01 C 574.42 431.83 571.96 419.76 568.39 408.18 Z" />
<path fill="#8d8d8d" opacity="1.00" d=" M 134.92 365.07 C 139.66 364.67 144.42 364.58 149.18 364.82 C 149.34 414.59 149.46 464.37 149.20 514.15 C 144.41 514.41 139.62 514.41 134.83 514.14 C 134.55 478.77 134.83 443.38 134.71 408.00 C 134.96 393.69 134.39 379.37 134.92 365.07 Z" />
<path fill="#8d8d8d" opacity="1.00" d=" M 834.85 374.83 C 838.82 370.30 845.46 371.01 850.87 371.35 C 855.76 371.67 860.03 375.98 859.91 380.97 C 860.16 389.69 860.12 398.43 860.07 407.16 C 851.00 406.93 841.93 406.79 832.86 406.84 C 832.73 401.45 832.56 396.06 832.31 390.68 C 832.34 385.39 831.30 379.28 834.85 374.83 Z" />
<path fill="#8d8d8d" opacity="1.00" d=" M 814.88 476.02 C 819.63 475.68 824.39 475.61 829.16 475.81 C 829.40 558.91 828.91 642.04 829.18 725.15 C 828.90 743.34 822.93 761.13 813.73 776.70 C 805.81 789.09 795.39 799.84 783.59 808.57 C 771.32 816.91 757.40 822.90 742.81 825.70 C 729.66 827.92 716.27 827.01 703.00 827.19 C 530.67 827.18 358.34 827.19 186.01 827.19 C 177.55 827.63 169.57 824.36 162.08 820.82 C 146.25 812.74 135.98 795.67 134.70 778.14 C 134.76 753.09 134.79 728.04 134.84 703.00 C 134.80 690.30 134.46 677.59 134.87 664.90 C 139.63 664.68 144.40 664.69 149.16 664.94 C 149.59 690.29 149.17 715.65 149.32 741.00 C 149.49 751.08 148.92 761.19 149.71 771.25 C 150.17 786.84 160.82 800.68 174.31 807.73 C 183.73 812.79 194.66 812.25 205.00 812.09 C 377.00 812.06 549.00 812.07 721.00 812.05 C 738.83 811.94 756.52 806.29 771.16 796.11 C 796.38 779.88 812.64 751.06 814.39 721.22 C 815.10 714.17 815.04 707.07 814.94 700.00 C 814.93 661.66 814.99 623.33 814.88 584.99 C 815.07 548.67 814.33 512.33 814.88 476.02 Z" />
<path fill="#8d8d8d" opacity="1.00" d=" M 831.98 476.10 C 841.38 476.23 850.79 476.24 860.19 475.82 C 860.61 483.87 860.24 491.93 860.36 499.99 C 860.19 504.40 860.54 509.68 856.94 512.93 C 853.04 516.69 847.11 516.10 842.17 515.64 C 836.78 515.09 832.22 510.48 832.13 505.00 C 831.73 495.37 832.00 485.73 831.98 476.10 Z" />
<path fill="#8d8d8d" opacity="1.00" d=" M 156.33 514.31 C 162.86 514.17 169.42 513.57 175.95 514.11 C 179.81 514.31 183.38 517.25 183.87 521.17 C 184.82 527.73 184.13 534.39 184.31 540.99 C 184.19 578.68 184.58 616.38 184.09 654.06 C 184.45 658.54 181.98 663.24 177.39 664.30 C 170.41 665.65 163.23 664.70 156.17 664.86 C 155.89 647.26 156.43 629.64 155.91 612.05 C 154.38 612.36 152.85 612.68 151.32 613.01 C 145.63 614.63 139.62 614.76 133.96 612.99 C 129.04 611.70 123.94 611.78 118.90 611.78 C 118.43 596.45 118.46 581.09 118.77 565.76 L 119.73 565.74 C 125.41 565.20 131.86 567.79 136.89 564.25 C 142.19 561.27 148.37 563.65 153.81 564.93 C 154.28 564.93 155.23 564.92 155.70 564.92 C 157.22 548.10 155.32 531.16 156.33 514.31 Z" />
<path fill="#8d8d8d" opacity="1.00" d=" M 405.73 570.79 C 421.90 554.86 437.57 538.43 454.02 522.80 C 468.74 527.58 484.53 529.38 499.86 526.81 C 505.15 525.77 510.36 524.29 515.65 523.20 C 531.48 539.14 547.43 554.96 563.37 570.78 C 555.59 576.07 546.93 579.87 538.13 583.12 C 501.09 597.43 458.49 595.80 422.27 579.76 C 416.55 577.17 410.91 574.36 405.73 570.79 Z" />
</g>
<g id="#acacacff">
<path fill="#acacac" opacity="1.00" d=" M 134.31 118.00 C 134.22 113.62 134.19 109.23 134.73 104.88 C 134.89 141.28 134.57 177.68 134.87 214.08 C 139.62 214.33 144.38 214.31 149.14 214.03 C 149.34 208.35 149.35 202.68 149.24 197.00 C 149.08 171.67 149.28 146.34 149.16 121.01 C 149.17 117.25 149.37 113.48 149.72 109.74 C 149.69 142.85 149.72 175.97 149.73 209.09 C 149.29 213.84 154.92 216.28 154.65 220.98 C 154.81 231.31 154.45 241.65 154.70 251.99 C 154.67 255.42 155.06 258.95 154.21 262.32 C 153.09 263.46 151.74 264.34 150.43 265.26 C 147.98 264.62 145.57 263.76 143.04 263.48 C 139.93 263.32 136.92 264.29 133.91 264.96 C 127.81 263.76 121.58 263.79 115.40 263.97 C 115.49 280.89 115.51 297.80 116.03 314.71 C 122.22 314.84 128.41 314.68 134.58 314.24 C 139.83 315.62 145.56 315.67 150.25 312.63 C 150.36 312.95 150.58 313.59 150.69 313.91 C 152.14 315.33 154.13 316.64 153.97 318.95 C 154.89 331.97 153.76 345.03 154.18 358.07 C 154.93 363.01 149.39 365.98 149.93 370.91 C 149.56 415.95 149.89 460.99 149.75 506.02 C 149.53 509.41 150.68 512.61 152.54 515.40 C 154.72 518.51 154.21 522.43 154.21 526.01 C 153.86 538.98 154.25 551.96 153.81 564.93 C 148.37 563.65 142.19 561.27 136.89 564.25 C 131.86 567.79 125.41 565.20 119.73 565.74 C 124.78 564.85 130.56 566.76 135.02 563.74 C 128.75 562.54 122.36 563.29 116.04 563.36 C 115.57 573.24 116.01 583.12 115.79 593.00 C 115.67 600.05 115.52 607.10 115.83 614.15 C 121.89 614.28 128.01 614.37 133.96 612.99 C 139.62 614.76 145.63 614.63 151.32 613.01 C 152.82 614.67 154.35 616.53 154.17 618.93 C 154.43 629.95 154.05 640.98 154.24 652.00 C 154.22 654.94 154.46 657.93 153.82 660.84 C 152.40 664.19 149.31 666.98 149.77 670.94 C 149.90 704.37 149.72 737.81 149.71 771.25 C 148.92 761.19 149.49 751.08 149.32 741.00 C 149.17 715.65 149.59 690.29 149.16 664.94 C 144.40 664.69 139.63 664.68 134.87 664.90 C 134.46 677.59 134.80 690.30 134.84 703.00 C 134.79 728.04 134.76 753.09 134.70 778.14 C 133.99 771.78 134.44 765.37 134.34 759.00 C 134.22 727.68 134.57 696.35 134.17 665.04 C 122.12 664.72 110.06 665.09 98.02 664.78 C 92.44 664.75 87.37 659.72 87.83 654.04 C 87.78 613.36 87.73 572.68 87.76 532.00 C 87.76 528.67 87.66 525.32 88.06 522.01 C 88.38 517.57 92.57 513.97 96.96 513.98 C 109.29 513.61 121.64 514.32 133.97 513.80 C 134.68 481.54 134.15 449.26 134.30 416.99 C 134.10 399.64 134.53 382.29 134.16 364.94 C 121.76 364.67 109.35 365.41 96.95 364.97 C 92.51 365.02 88.53 361.38 88.06 356.99 C 87.43 352.02 87.81 346.99 87.75 342.00 C 87.82 302.32 87.62 262.64 87.81 222.97 C 87.69 218.09 92.11 213.79 96.97 213.94 C 109.27 213.82 121.58 214.21 133.88 213.65 C 134.36 209.11 134.45 204.56 134.31 200.00 C 134.27 172.67 134.33 145.34 134.31 118.00 M 134.92 365.07 C 134.39 379.37 134.96 393.69 134.71 408.00 C 134.83 443.38 134.55 478.77 134.83 514.14 C 139.62 514.41 144.41 514.41 149.20 514.15 C 149.46 464.37 149.34 414.59 149.18 364.82 C 144.42 364.58 139.66 364.67 134.92 365.07 Z" />
<path fill="#acacac" opacity="1.00" d=" M 829.17 153.84 C 829.84 157.86 829.83 161.94 829.72 166.00 C 829.79 222.00 829.79 278.00 829.87 334.00 C 829.66 350.67 830.34 367.34 829.71 384.00 C 829.85 391.66 829.91 399.32 829.83 406.98 C 830.38 406.99 831.48 407.02 832.03 407.03 C 831.86 401.58 831.68 396.11 832.31 390.68 C 832.56 396.06 832.73 401.45 832.86 406.84 C 841.93 406.79 851.00 406.93 860.07 407.16 C 860.18 430.04 859.97 452.93 860.19 475.82 C 850.79 476.24 841.38 476.23 831.98 476.10 C 831.49 476.10 830.51 476.10 830.02 476.10 C 829.42 487.72 829.57 499.37 829.94 511.00 C 829.63 577.66 829.74 644.34 829.70 711.00 C 829.75 715.72 829.93 720.47 829.18 725.15 C 828.91 642.04 829.40 558.91 829.16 475.81 C 824.39 475.61 819.63 475.68 814.88 476.02 C 814.33 512.33 815.07 548.67 814.88 584.99 C 814.99 623.33 814.93 661.66 814.94 700.00 C 815.04 707.07 815.10 714.17 814.39 721.22 C 814.24 656.15 814.20 591.07 814.30 526.00 C 813.97 509.39 814.75 492.77 814.01 476.17 C 787.68 476.09 761.34 476.27 735.00 476.17 C 728.73 476.07 722.43 476.50 716.20 475.70 C 708.34 474.52 701.20 469.85 696.42 463.58 C 687.21 451.38 687.42 433.46 696.00 421.00 C 700.84 414.23 708.24 409.24 716.39 407.50 C 722.87 406.43 729.46 407.11 736.00 406.98 C 762.04 406.77 788.07 407.07 814.11 406.98 C 814.50 324.92 814.02 242.84 814.30 160.77 C 814.44 163.16 814.59 165.56 814.67 167.95 C 814.71 247.66 814.58 327.38 814.83 407.09 C 819.59 407.37 824.37 407.40 829.15 407.16 C 829.61 399.11 829.11 391.05 829.12 383.00 C 829.52 361.67 829.24 340.33 829.32 319.00 C 829.27 263.95 829.39 208.89 829.17 153.84 Z" />
<path fill="#acacac" opacity="1.00" d=" M 250.40 176.37 C 263.17 172.54 277.77 176.48 287.27 185.73 C 327.09 225.50 366.81 265.37 406.69 305.08 C 423.22 321.37 439.30 338.13 456.07 354.16 C 463.34 352.76 470.48 350.41 477.93 350.13 C 482.96 349.89 488.01 349.86 493.04 350.11 C 499.87 350.44 506.37 352.69 512.97 354.27 C 525.12 343.01 536.37 330.80 548.25 319.25 C 553.12 314.47 557.94 309.63 562.63 304.67 C 602.58 265.28 642.00 225.33 681.85 185.84 C 689.61 178.56 700.32 174.20 711.03 175.03 C 719.96 175.88 728.96 179.14 735.30 185.70 C 749.04 198.36 751.16 221.81 739.43 236.46 C 735.00 241.99 729.67 246.68 724.77 251.77 C 688.80 287.71 652.76 323.59 616.94 359.68 C 600.66 375.75 584.52 391.96 568.39 408.18 C 571.96 419.76 574.42 431.83 573.75 444.01 C 573.32 452.07 570.82 459.81 569.21 467.68 C 585.54 484.03 601.89 500.36 618.47 516.46 C 657.50 555.11 696.40 593.91 735.21 632.79 C 746.55 643.14 749.87 660.56 744.75 674.79 C 738.23 692.04 718.33 703.17 700.24 698.74 C 691.59 697.16 684.34 691.83 678.38 685.62 C 639.99 647.40 601.76 609.01 563.37 570.78 C 547.43 554.96 531.48 539.14 515.65 523.20 C 510.36 524.29 505.15 525.77 499.86 526.81 C 484.53 529.38 468.74 527.58 454.02 522.80 C 437.57 538.43 421.90 554.86 405.73 570.79 C 366.31 610.01 327.18 649.54 287.65 688.64 C 280.91 695.47 271.45 699.14 261.96 699.75 C 253.19 699.86 244.35 696.95 237.37 691.63 C 229.24 684.80 223.56 674.87 222.57 664.22 C 221.44 653.96 224.56 643.20 231.65 635.59 C 237.98 628.95 244.60 622.58 251.16 616.17 C 284.42 582.87 317.87 549.75 351.03 516.34 C 363.77 503.98 376.17 491.27 388.82 478.82 C 392.21 475.04 396.49 471.98 399.26 467.69 C 399.37 463.14 397.36 458.86 396.57 454.43 C 393.18 438.95 396.05 423.03 400.27 408.03 C 389.14 396.07 377.19 384.90 365.76 373.23 C 361.25 368.65 356.78 364.04 352.09 359.65 C 314.05 321.44 275.86 283.38 237.77 245.22 C 231.43 238.85 225.24 231.56 223.47 222.48 C 221.49 211.94 222.69 200.13 229.35 191.38 C 234.54 184.31 241.87 178.71 250.40 176.37 M 476.39 371.47 C 457.75 373.66 440.18 383.95 429.32 399.28 C 419.66 412.65 415.09 429.61 416.87 446.03 C 418.46 459.10 423.47 471.86 431.96 482.02 C 445.01 498.43 466.02 508.11 486.97 507.34 C 511.12 506.37 534.12 491.58 545.07 470.04 C 553.48 453.36 555.05 433.15 548.30 415.63 C 543.10 400.24 531.64 387.38 517.57 379.45 C 505.21 372.33 490.50 369.82 476.39 371.47 Z" />
</g>
<g id="#3986cbff">
<path fill="#3986cb" opacity="1.00" d=" M 476.39 371.47 C 490.50 369.82 505.21 372.33 517.57 379.45 C 531.64 387.38 543.10 400.24 548.30 415.63 C 555.05 433.15 553.48 453.36 545.07 470.04 C 534.12 491.58 511.12 506.37 486.97 507.34 C 466.02 508.11 445.01 498.43 431.96 482.02 C 423.47 471.86 418.46 459.10 416.87 446.03 C 415.09 429.61 419.66 412.65 429.32 399.28 C 440.18 383.95 457.75 373.66 476.39 371.47 Z" />
</g>
</svg>
